Fritt Vilt III (2010)(Divx)(NL-Eng subs Extern) TBS 
Alternatieve titels: Cold Prey 3, Cold Prey: Beginning 


Noorwegen
Horror / Thriller
95 minuten

geregisseerd door Mikkel Brænne Sandemose
met Ida Marie Bakkerud, Kim S. Falck-Jørgensen en Pål Stokka

Prequel op de Noorse slasher-serie Fritt Vilt. Fritt Vilt III gaat helemaal terug naar het begin van de terreur in de bergen van Jotunheimen. We zien wat er voorafgaat aan de snowboardreis van de vijf vrienden Jannicke, Morten Tobias, Eirik, Mikael en Ingunn in de Noorse bergen, waar ze in een verlaten hotel 
terechtkomen, en alwaar er een krankzinnige moordenaar op de loer ligt...

Storyline

Takes place in the 80's where a group of teenagers go to visit an abandoned hotel, only to find themselves hunted by a psychotic killer through the Norwegian woods. 


General
Complete name                    : [Fritt Vilt III].2010.BRRip.XviD-VLiS.avi
Format                           : AVI
Format/Info                      : Audio Video Interleave
File size                        : 700 MiB
Duration                         : 1h 37mn
Overall bit rate                 : 1 002 Kbps
Writing application              : VirtualDubMod 1.5.10.2 (build 2542/release)
Writing library                  : VirtualDubMod build 2542/release

Video
ID                               : 0
Format                           : MPEG-4 Visual
Format profile                   : Advanced Simple@L5
Format settings, BVOP            : Yes
Format settings, QPel            : No
Format settings, GMC             : No warppoints
Format settings, Matrix          : Default (H.263)
Muxing mode                      : Packed bitstream
Codec ID                         : XVID
Codec ID/Hint                    : XviD
Duration                         : 1h 37mn
Bit rate                         : 875 Kbps
Width                            : 720 pixels
Height                           : 320 pixels
Display aspect ratio             : 2.25:1
Frame rate                       : 24.000 fps
Color space                      : YUV
Chroma subsampling               : 4:2:0
Bit depth                        : 8 bits
Scan type                        : Progressive
Bits/(Pixel*Frame)               : 0.158
Stream size                      : 611 MiB (87%)
Writing library                  : XviD 1.2.1 (UTC 2008-12-04)

Audio
ID                               : 1
Format                           : MPEG Audio
Format version                   : Version 1
Format profile                   : Layer 3
Mode                             : Joint stereo
Mode extension                   : MS Stereo
Codec ID                         : 55
Codec ID/Hint                    : MP3
Duration                         : 1h 37mn
Bit rate mode                    : Variable
Bit rate                         : 114 Kbps
Nominal bit rate                 : 128 Kbps
Channel(s)                       : 2 channels
Sampling rate                    : 48.0 KHz
Stream size                      : 79.8 MiB (11%)
Alignment                        : Aligned on interleaves
Interleave, duration             : 24 ms (0.58 video frame)
Interleave, preload duration     : 161 ms
Writing library                  : LAME3.98r
Encoding settings                : -m j -V 4 -q 2 -lowpass 17 --abr 128



 
http://www.imdb.com/title/tt1464535 
http://www.moviemeter.nl/film/65116